<?xml version="1.0" encoding="utf-8"?>
<!-- Generator: Adobe Illustrator 24.2.3, SVG Export Plug-In . SVG Version: 6.00 Build 0)  -->
<svg version="1.1" id="Layer_1" xmlns="http://www.w3.org/2000/svg" xmlns:xlink="http://www.w3.org/1999/xlink" x="0px" y="0px"
	 viewBox="0 0 64 64" style="enable-background:new 0 0 64 64;" xml:space="preserve">
<path d="M32,64V51.6c13.1,0,23.3-13,18.3-26.8c-1.9-5.1-5.9-9.2-11.1-11.1c-13.8-5-26.9,5.1-26.9,18.3H0C0,11.1,20.2-5.3,42.2,1.6
	c9.6,3,17.2,10.6,20.2,20.2C69.3,43.8,53,64,32,64L32,64z"/>
<path d="M19.7,51.6V39.3H32v12.3H19.7z M10.2,61.1v-9.5h9.5v9.5H10.2z M10.2,51.6H2.2v-7.9h7.9V51.6z"/>
</svg>
